<mxfile host="app.diagrams.net" modified="2021-01-20T06:26:38.730Z" agent="5.0 (Windows NT 10.0; Win64; x64) AppleWebKit/537.36 (KHTML, like Gecko) Chrome/87.0.4280.141 Safari/537.36 Edg/87.0.664.75" etag="2kw8WS7pPl702WhUWGJ9" version="14.2.5" type="github">
  <diagram name="Page-1" id="2c0d36ab-eaac-3732-788b-9136903baeff">
    <mxGraphModel dx="1730" dy="887" grid="1" gridSize="10" guides="1" tooltips="1" connect="1" arrows="1" fold="1" page="1" pageScale="1.5" pageWidth="1169" pageHeight="827" background="#ffffff" math="0" shadow="0">
      <root>
        <mxCell id="0" />
        <mxCell id="1" parent="0" />
        <mxCell id="722zc47QyeTokmsCwCPZ-138" style="edgeStyle=orthogonalEdgeStyle;rounded=0;orthogonalLoop=1;jettySize=auto;html=1;entryX=0.5;entryY=0;entryDx=0;entryDy=0;" edge="1" parent="1" source="2" target="722zc47QyeTokmsCwCPZ-137">
          <mxGeometry relative="1" as="geometry">
            <Array as="points">
              <mxPoint x="2245" y="300" />
              <mxPoint x="1035" y="300" />
            </Array>
          </mxGeometry>
        </mxCell>
        <mxCell id="722zc47QyeTokmsCwCPZ-139" style="edgeStyle=orthogonalEdgeStyle;rounded=0;orthogonalLoop=1;jettySize=auto;html=1;entryX=0.5;entryY=0;entryDx=0;entryDy=0;" edge="1" parent="1" source="2" target="12">
          <mxGeometry relative="1" as="geometry">
            <Array as="points">
              <mxPoint x="2245" y="300" />
              <mxPoint x="415" y="300" />
            </Array>
          </mxGeometry>
        </mxCell>
        <mxCell id="722zc47QyeTokmsCwCPZ-140" style="edgeStyle=orthogonalEdgeStyle;rounded=0;orthogonalLoop=1;jettySize=auto;html=1;entryX=0.5;entryY=0;entryDx=0;entryDy=0;" edge="1" parent="1" source="2" target="722zc47QyeTokmsCwCPZ-129">
          <mxGeometry relative="1" as="geometry">
            <Array as="points">
              <mxPoint x="2245" y="300" />
              <mxPoint x="625" y="300" />
            </Array>
          </mxGeometry>
        </mxCell>
        <mxCell id="722zc47QyeTokmsCwCPZ-141" style="edgeStyle=orthogonalEdgeStyle;rounded=0;orthogonalLoop=1;jettySize=auto;html=1;entryX=0.5;entryY=0;entryDx=0;entryDy=0;" edge="1" parent="1" source="2" target="10">
          <mxGeometry relative="1" as="geometry">
            <Array as="points">
              <mxPoint x="2245" y="300" />
              <mxPoint x="832" y="300" />
            </Array>
          </mxGeometry>
        </mxCell>
        <mxCell id="722zc47QyeTokmsCwCPZ-145" style="edgeStyle=orthogonalEdgeStyle;rounded=0;orthogonalLoop=1;jettySize=auto;html=1;entryX=0.5;entryY=0;entryDx=0;entryDy=0;" edge="1" parent="1" source="2" target="722zc47QyeTokmsCwCPZ-144">
          <mxGeometry relative="1" as="geometry">
            <Array as="points">
              <mxPoint x="2245" y="300" />
              <mxPoint x="1235" y="300" />
            </Array>
          </mxGeometry>
        </mxCell>
        <mxCell id="722zc47QyeTokmsCwCPZ-154" style="edgeStyle=orthogonalEdgeStyle;rounded=0;orthogonalLoop=1;jettySize=auto;html=1;entryX=0.5;entryY=0;entryDx=0;entryDy=0;" edge="1" parent="1" source="2" target="722zc47QyeTokmsCwCPZ-153">
          <mxGeometry relative="1" as="geometry">
            <Array as="points">
              <mxPoint x="2245" y="300" />
              <mxPoint x="1645" y="300" />
            </Array>
          </mxGeometry>
        </mxCell>
        <mxCell id="722zc47QyeTokmsCwCPZ-158" style="edgeStyle=orthogonalEdgeStyle;rounded=0;orthogonalLoop=1;jettySize=auto;html=1;" edge="1" parent="1" source="2" target="722zc47QyeTokmsCwCPZ-157">
          <mxGeometry relative="1" as="geometry">
            <Array as="points">
              <mxPoint x="2245" y="300" />
              <mxPoint x="1845" y="300" />
            </Array>
          </mxGeometry>
        </mxCell>
        <mxCell id="722zc47QyeTokmsCwCPZ-163" style="edgeStyle=orthogonalEdgeStyle;rounded=0;orthogonalLoop=1;jettySize=auto;html=1;entryX=0.5;entryY=0;entryDx=0;entryDy=0;" edge="1" parent="1" source="2" target="722zc47QyeTokmsCwCPZ-161">
          <mxGeometry relative="1" as="geometry">
            <Array as="points">
              <mxPoint x="2245" y="300" />
              <mxPoint x="2045" y="300" />
            </Array>
          </mxGeometry>
        </mxCell>
        <mxCell id="722zc47QyeTokmsCwCPZ-167" style="edgeStyle=orthogonalEdgeStyle;rounded=0;orthogonalLoop=1;jettySize=auto;html=1;" edge="1" parent="1" source="2" target="722zc47QyeTokmsCwCPZ-165">
          <mxGeometry relative="1" as="geometry">
            <Array as="points">
              <mxPoint x="2245" y="300" />
              <mxPoint x="2245" y="300" />
            </Array>
          </mxGeometry>
        </mxCell>
        <mxCell id="722zc47QyeTokmsCwCPZ-171" style="edgeStyle=orthogonalEdgeStyle;rounded=0;orthogonalLoop=1;jettySize=auto;html=1;" edge="1" parent="1" source="2" target="722zc47QyeTokmsCwCPZ-169">
          <mxGeometry relative="1" as="geometry">
            <Array as="points">
              <mxPoint x="2245" y="300" />
              <mxPoint x="2445" y="300" />
            </Array>
          </mxGeometry>
        </mxCell>
        <mxCell id="722zc47QyeTokmsCwCPZ-176" style="edgeStyle=orthogonalEdgeStyle;rounded=0;orthogonalLoop=1;jettySize=auto;html=1;entryX=0.5;entryY=0;entryDx=0;entryDy=0;" edge="1" parent="1" source="2" target="722zc47QyeTokmsCwCPZ-172">
          <mxGeometry relative="1" as="geometry">
            <Array as="points">
              <mxPoint x="2245" y="300" />
              <mxPoint x="2645" y="300" />
            </Array>
          </mxGeometry>
        </mxCell>
        <mxCell id="722zc47QyeTokmsCwCPZ-198" style="edgeStyle=orthogonalEdgeStyle;rounded=0;orthogonalLoop=1;jettySize=auto;html=1;" edge="1" parent="1" source="2" target="722zc47QyeTokmsCwCPZ-181">
          <mxGeometry relative="1" as="geometry">
            <Array as="points">
              <mxPoint x="2245" y="300" />
              <mxPoint x="3045" y="300" />
            </Array>
          </mxGeometry>
        </mxCell>
        <mxCell id="722zc47QyeTokmsCwCPZ-199" style="edgeStyle=orthogonalEdgeStyle;rounded=0;orthogonalLoop=1;jettySize=auto;html=1;entryX=0.5;entryY=0;entryDx=0;entryDy=0;" edge="1" parent="1" source="2" target="722zc47QyeTokmsCwCPZ-183">
          <mxGeometry relative="1" as="geometry">
            <mxPoint x="3240" y="320" as="targetPoint" />
            <Array as="points">
              <mxPoint x="2245" y="300" />
              <mxPoint x="3240" y="300" />
              <mxPoint x="3240" y="336" />
            </Array>
          </mxGeometry>
        </mxCell>
        <mxCell id="722zc47QyeTokmsCwCPZ-200" style="edgeStyle=orthogonalEdgeStyle;rounded=0;orthogonalLoop=1;jettySize=auto;html=1;entryX=0.5;entryY=0;entryDx=0;entryDy=0;" edge="1" parent="1" source="2" target="722zc47QyeTokmsCwCPZ-185">
          <mxGeometry relative="1" as="geometry">
            <Array as="points">
              <mxPoint x="2245" y="300" />
              <mxPoint x="3445" y="300" />
            </Array>
          </mxGeometry>
        </mxCell>
        <mxCell id="722zc47QyeTokmsCwCPZ-201" style="edgeStyle=orthogonalEdgeStyle;rounded=0;orthogonalLoop=1;jettySize=auto;html=1;" edge="1" parent="1" source="2" target="722zc47QyeTokmsCwCPZ-187">
          <mxGeometry relative="1" as="geometry">
            <Array as="points">
              <mxPoint x="2245" y="300" />
              <mxPoint x="3645" y="300" />
            </Array>
          </mxGeometry>
        </mxCell>
        <mxCell id="722zc47QyeTokmsCwCPZ-202" style="edgeStyle=orthogonalEdgeStyle;rounded=0;orthogonalLoop=1;jettySize=auto;html=1;" edge="1" parent="1" source="2" target="722zc47QyeTokmsCwCPZ-189">
          <mxGeometry relative="1" as="geometry">
            <Array as="points">
              <mxPoint x="2245" y="300" />
              <mxPoint x="3845" y="300" />
            </Array>
          </mxGeometry>
        </mxCell>
        <mxCell id="722zc47QyeTokmsCwCPZ-203" style="edgeStyle=orthogonalEdgeStyle;rounded=0;orthogonalLoop=1;jettySize=auto;html=1;" edge="1" parent="1" source="2" target="722zc47QyeTokmsCwCPZ-177">
          <mxGeometry relative="1" as="geometry">
            <Array as="points">
              <mxPoint x="2245" y="300" />
              <mxPoint x="2845" y="300" />
            </Array>
          </mxGeometry>
        </mxCell>
        <mxCell id="2" value="openapi-dev" style="rounded=1;fillColor=#23445D;gradientColor=none;strokeColor=none;fontColor=#FFFFFF;fontStyle=1;fontFamily=Tahoma;fontSize=14" parent="1" vertex="1">
          <mxGeometry x="2150" y="185.5" width="190" height="84.5" as="geometry" />
        </mxCell>
        <mxCell id="4" value="openapi-contract" style="rounded=1;fillColor=#23445D;gradientColor=none;strokeColor=none;fontColor=#FFFFFF;fontStyle=1;fontFamily=Tahoma;fontSize=14" parent="1" vertex="1">
          <mxGeometry x="1349.9999999999998" y="335.5" width="190" height="80" as="geometry" />
        </mxCell>
        <mxCell id="9" value="" style="edgeStyle=elbowEdgeStyle;elbow=vertical;strokeWidth=2;rounded=0" parent="1" source="2" target="4" edge="1">
          <mxGeometry x="337" y="215.5" width="100" height="100" as="geometry">
            <mxPoint x="337" y="315.5" as="sourcePoint" />
            <mxPoint x="437" y="215.5" as="targetPoint" />
          </mxGeometry>
        </mxCell>
        <mxCell id="10" value="mysql-mysql" style="rounded=1;fillColor=#23445D;gradientColor=none;strokeColor=none;fontColor=#FFFFFF;fontStyle=1;fontFamily=Tahoma;fontSize=14" parent="1" vertex="1">
          <mxGeometry x="737" y="335.5" width="190" height="80" as="geometry" />
        </mxCell>
        <mxCell id="12" value="mongo-mongo" style="rounded=1;fillColor=#23445D;gradientColor=none;strokeColor=none;fontColor=#FFFFFF;fontStyle=1;fontFamily=Tahoma;fontSize=14" parent="1" vertex="1">
          <mxGeometry x="319.9999999999999" y="335.5" width="190" height="80" as="geometry" />
        </mxCell>
        <mxCell id="13" value="metator" style="rounded=1;fillColor=#23445D;gradientColor=none;strokeColor=none;fontColor=#FFFFFF;fontStyle=1;fontFamily=Tahoma;fontSize=14" parent="1" vertex="1">
          <mxGeometry x="107" y="335.5" width="190" height="80" as="geometry" />
        </mxCell>
        <mxCell id="61" value="" style="edgeStyle=elbowEdgeStyle;elbow=vertical;strokeWidth=2;rounded=0" parent="1" source="2" target="13" edge="1">
          <mxGeometry x="-23" y="135.5" width="100" height="100" as="geometry">
            <mxPoint x="-23" y="235.5" as="sourcePoint" />
            <mxPoint x="77" y="135.5" as="targetPoint" />
          </mxGeometry>
        </mxCell>
        <mxCell id="101" value="" style="edgeStyle=elbowEdgeStyle;elbow=vertical;strokeWidth=2;rounded=0" parent="1" source="12" edge="1">
          <mxGeometry x="-23" y="135.5" width="100" height="100" as="geometry">
            <mxPoint x="-23" y="235.5" as="sourcePoint" />
            <mxPoint x="425" y="480" as="targetPoint" />
            <Array as="points">
              <mxPoint x="425" y="435" />
            </Array>
          </mxGeometry>
        </mxCell>
        <mxCell id="104" value="" style="edgeStyle=elbowEdgeStyle;elbow=vertical;strokeWidth=2;rounded=0;entryX=0.5;entryY=0;entryDx=0;entryDy=0;" parent="1" source="4" target="722zc47QyeTokmsCwCPZ-152" edge="1">
          <mxGeometry x="-23" y="135.5" width="100" height="100" as="geometry">
            <mxPoint x="-23" y="235.5" as="sourcePoint" />
            <mxPoint x="1457" y="455.5" as="targetPoint" />
          </mxGeometry>
        </mxCell>
        <mxCell id="722zc47QyeTokmsCwCPZ-123" value="" style="endArrow=classic;html=1;exitX=0.5;exitY=1;exitDx=0;exitDy=0;" edge="1" parent="1" source="13">
          <mxGeometry width="50" height="50" relative="1" as="geometry">
            <mxPoint x="230" y="560" as="sourcePoint" />
            <mxPoint x="202" y="480" as="targetPoint" />
          </mxGeometry>
        </mxCell>
        <mxCell id="722zc47QyeTokmsCwCPZ-125" value="metadata-&#xa;7fdf9998cd-tthnc" style="rounded=1;fillColor=#23445D;gradientColor=none;strokeColor=none;fontColor=#FFFFFF;fontStyle=1;fontFamily=Tahoma;fontSize=14" vertex="1" parent="1">
          <mxGeometry x="107" y="480" width="190" height="80" as="geometry" />
        </mxCell>
        <mxCell id="722zc47QyeTokmsCwCPZ-127" value="mongo-mongo-&#xa;5577579b87-6gwkz" style="rounded=1;fillColor=#23445D;gradientColor=none;strokeColor=none;fontColor=#FFFFFF;fontStyle=1;fontFamily=Tahoma;fontSize=14" vertex="1" parent="1">
          <mxGeometry x="319.9999999999999" y="480" width="190" height="80" as="geometry" />
        </mxCell>
        <mxCell id="722zc47QyeTokmsCwCPZ-129" value="monitor" style="rounded=1;fillColor=#23445D;gradientColor=none;strokeColor=none;fontColor=#FFFFFF;fontStyle=1;fontFamily=Tahoma;fontSize=14" vertex="1" parent="1">
          <mxGeometry x="529.9999999999999" y="335.5" width="190" height="80" as="geometry" />
        </mxCell>
        <mxCell id="722zc47QyeTokmsCwCPZ-132" value="" style="edgeStyle=elbowEdgeStyle;elbow=vertical;strokeWidth=2;rounded=0" edge="1" parent="1">
          <mxGeometry x="172" y="135.5" width="100" height="100" as="geometry">
            <mxPoint x="620" y="415.5" as="sourcePoint" />
            <mxPoint x="620" y="480" as="targetPoint" />
            <Array as="points">
              <mxPoint x="620" y="435" />
            </Array>
          </mxGeometry>
        </mxCell>
        <mxCell id="722zc47QyeTokmsCwCPZ-133" value="monitor-&#xa;6d6986b4c4-csf24" style="rounded=1;fillColor=#23445D;gradientColor=none;strokeColor=none;fontColor=#FFFFFF;fontStyle=1;fontFamily=Tahoma;fontSize=14" vertex="1" parent="1">
          <mxGeometry x="529.9999999999999" y="480" width="190" height="80" as="geometry" />
        </mxCell>
        <mxCell id="722zc47QyeTokmsCwCPZ-134" value="mysql-mysql-&#xa;7cc8f64f8c-ckk84" style="rounded=1;fillColor=#23445D;gradientColor=none;strokeColor=none;fontColor=#FFFFFF;fontStyle=1;fontFamily=Tahoma;fontSize=14" vertex="1" parent="1">
          <mxGeometry x="737" y="480" width="190" height="80" as="geometry" />
        </mxCell>
        <mxCell id="722zc47QyeTokmsCwCPZ-135" value="" style="edgeStyle=elbowEdgeStyle;elbow=vertical;strokeWidth=2;rounded=0" edge="1" parent="1">
          <mxGeometry x="383.33000000000004" y="135.5" width="100" height="100" as="geometry">
            <mxPoint x="831.33" y="415.5" as="sourcePoint" />
            <mxPoint x="831.33" y="480" as="targetPoint" />
            <Array as="points">
              <mxPoint x="831.33" y="435" />
            </Array>
          </mxGeometry>
        </mxCell>
        <mxCell id="722zc47QyeTokmsCwCPZ-142" style="edgeStyle=orthogonalEdgeStyle;rounded=0;orthogonalLoop=1;jettySize=auto;html=1;" edge="1" parent="1" source="722zc47QyeTokmsCwCPZ-137">
          <mxGeometry relative="1" as="geometry">
            <mxPoint x="1035" y="480" as="targetPoint" />
          </mxGeometry>
        </mxCell>
        <mxCell id="722zc47QyeTokmsCwCPZ-137" value="openapi-admin-backend" style="rounded=1;fillColor=#23445D;gradientColor=none;strokeColor=none;fontColor=#FFFFFF;fontStyle=1;fontFamily=Tahoma;fontSize=14" vertex="1" parent="1">
          <mxGeometry x="940" y="335.5" width="190" height="80" as="geometry" />
        </mxCell>
        <mxCell id="722zc47QyeTokmsCwCPZ-143" value="openapi-admin-backend-&#xa;c4f689855-vq5nd" style="rounded=1;fillColor=#23445D;gradientColor=none;strokeColor=none;fontColor=#FFFFFF;fontStyle=1;fontFamily=Tahoma;fontSize=14" vertex="1" parent="1">
          <mxGeometry x="940" y="480" width="190" height="80" as="geometry" />
        </mxCell>
        <mxCell id="722zc47QyeTokmsCwCPZ-144" value="openapi-admin-frontend" style="rounded=1;fillColor=#23445D;gradientColor=none;strokeColor=none;fontColor=#FFFFFF;fontStyle=1;fontFamily=Tahoma;fontSize=14" vertex="1" parent="1">
          <mxGeometry x="1140" y="335.5" width="190" height="80" as="geometry" />
        </mxCell>
        <mxCell id="722zc47QyeTokmsCwCPZ-147" value="openapi-admin-frontend" style="rounded=1;fillColor=#23445D;gradientColor=none;strokeColor=none;fontColor=#FFFFFF;fontStyle=1;fontFamily=Tahoma;fontSize=14" vertex="1" parent="1">
          <mxGeometry x="1140" y="480" width="190" height="80" as="geometry" />
        </mxCell>
        <mxCell id="722zc47QyeTokmsCwCPZ-151" value="" style="edgeStyle=elbowEdgeStyle;elbow=vertical;strokeWidth=2;rounded=0" edge="1" parent="1">
          <mxGeometry x="786.33" y="135.5" width="100" height="100" as="geometry">
            <mxPoint x="1234.33" y="415.5" as="sourcePoint" />
            <mxPoint x="1234.33" y="480" as="targetPoint" />
            <Array as="points">
              <mxPoint x="1234.33" y="435" />
            </Array>
          </mxGeometry>
        </mxCell>
        <mxCell id="722zc47QyeTokmsCwCPZ-152" value="openapi-contract-&#xa;6b4c787879-lfz79" style="rounded=1;fillColor=#23445D;gradientColor=none;strokeColor=none;fontColor=#FFFFFF;fontStyle=1;fontFamily=Tahoma;fontSize=14" vertex="1" parent="1">
          <mxGeometry x="1349.9999999999998" y="480" width="190" height="80" as="geometry" />
        </mxCell>
        <mxCell id="722zc47QyeTokmsCwCPZ-156" style="edgeStyle=orthogonalEdgeStyle;rounded=0;orthogonalLoop=1;jettySize=auto;html=1;entryX=0.5;entryY=0;entryDx=0;entryDy=0;" edge="1" parent="1" source="722zc47QyeTokmsCwCPZ-153" target="722zc47QyeTokmsCwCPZ-155">
          <mxGeometry relative="1" as="geometry" />
        </mxCell>
        <mxCell id="722zc47QyeTokmsCwCPZ-153" value="openapi-core" style="rounded=1;fillColor=#23445D;gradientColor=none;strokeColor=none;fontColor=#FFFFFF;fontStyle=1;fontFamily=Tahoma;fontSize=14" vertex="1" parent="1">
          <mxGeometry x="1549.9999999999998" y="335.5" width="190" height="80" as="geometry" />
        </mxCell>
        <mxCell id="722zc47QyeTokmsCwCPZ-155" value="openapi-core-&#xa;544cc4cdb8-bx8zd" style="rounded=1;fillColor=#23445D;gradientColor=none;strokeColor=none;fontColor=#FFFFFF;fontStyle=1;fontFamily=Tahoma;fontSize=14" vertex="1" parent="1">
          <mxGeometry x="1549.9999999999998" y="480" width="190" height="80" as="geometry" />
        </mxCell>
        <mxCell id="722zc47QyeTokmsCwCPZ-160" style="edgeStyle=orthogonalEdgeStyle;rounded=0;orthogonalLoop=1;jettySize=auto;html=1;entryX=0.5;entryY=0;entryDx=0;entryDy=0;" edge="1" parent="1" source="722zc47QyeTokmsCwCPZ-157" target="722zc47QyeTokmsCwCPZ-159">
          <mxGeometry relative="1" as="geometry" />
        </mxCell>
        <mxCell id="722zc47QyeTokmsCwCPZ-157" value="openapi-datasource" style="rounded=1;fillColor=#23445D;gradientColor=none;strokeColor=none;fontColor=#FFFFFF;fontStyle=1;fontFamily=Tahoma;fontSize=14" vertex="1" parent="1">
          <mxGeometry x="1749.9999999999998" y="335.5" width="190" height="80" as="geometry" />
        </mxCell>
        <mxCell id="722zc47QyeTokmsCwCPZ-159" value="openapi-datasource-&#xa;5db59c699-lxskx" style="rounded=1;fillColor=#23445D;gradientColor=none;strokeColor=none;fontColor=#FFFFFF;fontStyle=1;fontFamily=Tahoma;fontSize=14" vertex="1" parent="1">
          <mxGeometry x="1749.9999999999998" y="480" width="190" height="80" as="geometry" />
        </mxCell>
        <mxCell id="722zc47QyeTokmsCwCPZ-164" style="edgeStyle=orthogonalEdgeStyle;rounded=0;orthogonalLoop=1;jettySize=auto;html=1;" edge="1" parent="1" source="722zc47QyeTokmsCwCPZ-161" target="722zc47QyeTokmsCwCPZ-162">
          <mxGeometry relative="1" as="geometry" />
        </mxCell>
        <mxCell id="722zc47QyeTokmsCwCPZ-161" value="openapi-help" style="rounded=1;fillColor=#23445D;gradientColor=none;strokeColor=none;fontColor=#FFFFFF;fontStyle=1;fontFamily=Tahoma;fontSize=14" vertex="1" parent="1">
          <mxGeometry x="1949.9999999999998" y="335.5" width="190" height="80" as="geometry" />
        </mxCell>
        <mxCell id="722zc47QyeTokmsCwCPZ-162" value="openapi-help-&#xa;7556b966-vfctt" style="rounded=1;fillColor=#23445D;gradientColor=none;strokeColor=none;fontColor=#FFFFFF;fontStyle=1;fontFamily=Tahoma;fontSize=14" vertex="1" parent="1">
          <mxGeometry x="1949.9999999999998" y="480" width="190" height="80" as="geometry" />
        </mxCell>
        <mxCell id="722zc47QyeTokmsCwCPZ-173" style="edgeStyle=orthogonalEdgeStyle;rounded=0;orthogonalLoop=1;jettySize=auto;html=1;entryX=0.5;entryY=0;entryDx=0;entryDy=0;" edge="1" parent="1" source="722zc47QyeTokmsCwCPZ-165" target="722zc47QyeTokmsCwCPZ-166">
          <mxGeometry relative="1" as="geometry" />
        </mxCell>
        <mxCell id="722zc47QyeTokmsCwCPZ-165" value="openapi-kafka" style="rounded=1;fillColor=#23445D;gradientColor=none;strokeColor=none;fontColor=#FFFFFF;fontStyle=1;fontFamily=Tahoma;fontSize=14" vertex="1" parent="1">
          <mxGeometry x="2150" y="335.5" width="190" height="80" as="geometry" />
        </mxCell>
        <mxCell id="722zc47QyeTokmsCwCPZ-166" value="openapi-kafka-&#xa;84b7ddffc9-8vtcr" style="rounded=1;fillColor=#23445D;gradientColor=none;strokeColor=none;fontColor=#FFFFFF;fontStyle=1;fontFamily=Tahoma;fontSize=14" vertex="1" parent="1">
          <mxGeometry x="2150" y="480" width="190" height="80" as="geometry" />
        </mxCell>
        <mxCell id="722zc47QyeTokmsCwCPZ-174" style="edgeStyle=orthogonalEdgeStyle;rounded=0;orthogonalLoop=1;jettySize=auto;html=1;" edge="1" parent="1" source="722zc47QyeTokmsCwCPZ-169" target="722zc47QyeTokmsCwCPZ-170">
          <mxGeometry relative="1" as="geometry" />
        </mxCell>
        <mxCell id="722zc47QyeTokmsCwCPZ-169" value="openapi-mock" style="rounded=1;fillColor=#23445D;gradientColor=none;strokeColor=none;fontColor=#FFFFFF;fontStyle=1;fontFamily=Tahoma;fontSize=14" vertex="1" parent="1">
          <mxGeometry x="2350" y="335.5" width="190" height="80" as="geometry" />
        </mxCell>
        <mxCell id="722zc47QyeTokmsCwCPZ-170" value="openapi-mock-&#xa;6f5bb4c765-hjhrs" style="rounded=1;fillColor=#23445D;gradientColor=none;strokeColor=none;fontColor=#FFFFFF;fontStyle=1;fontFamily=Tahoma;fontSize=14" vertex="1" parent="1">
          <mxGeometry x="2350" y="480" width="190" height="80" as="geometry" />
        </mxCell>
        <mxCell id="722zc47QyeTokmsCwCPZ-191" style="edgeStyle=orthogonalEdgeStyle;rounded=0;orthogonalLoop=1;jettySize=auto;html=1;entryX=0.5;entryY=0;entryDx=0;entryDy=0;" edge="1" parent="1" source="722zc47QyeTokmsCwCPZ-172" target="722zc47QyeTokmsCwCPZ-175">
          <mxGeometry relative="1" as="geometry" />
        </mxCell>
        <mxCell id="722zc47QyeTokmsCwCPZ-172" value="openapi-tenant-backend" style="rounded=1;fillColor=#23445D;gradientColor=none;strokeColor=none;fontColor=#FFFFFF;fontStyle=1;fontFamily=Tahoma;fontSize=14" vertex="1" parent="1">
          <mxGeometry x="2550" y="335.5" width="190" height="80" as="geometry" />
        </mxCell>
        <mxCell id="722zc47QyeTokmsCwCPZ-175" value="openapi-tenant-backend-&#xa;7778db7d5b-kwbb7" style="rounded=1;fillColor=#23445D;gradientColor=none;strokeColor=none;fontColor=#FFFFFF;fontStyle=1;fontFamily=Tahoma;fontSize=14" vertex="1" parent="1">
          <mxGeometry x="2550" y="480" width="190" height="80" as="geometry" />
        </mxCell>
        <mxCell id="722zc47QyeTokmsCwCPZ-192" style="edgeStyle=orthogonalEdgeStyle;rounded=0;orthogonalLoop=1;jettySize=auto;html=1;" edge="1" parent="1" source="722zc47QyeTokmsCwCPZ-177" target="722zc47QyeTokmsCwCPZ-179">
          <mxGeometry relative="1" as="geometry" />
        </mxCell>
        <mxCell id="722zc47QyeTokmsCwCPZ-177" value="openapi-tenant-frontend-" style="rounded=1;fillColor=#23445D;gradientColor=none;strokeColor=none;fontColor=#FFFFFF;fontStyle=1;fontFamily=Tahoma;fontSize=14" vertex="1" parent="1">
          <mxGeometry x="2750" y="335.5" width="190" height="80" as="geometry" />
        </mxCell>
        <mxCell id="722zc47QyeTokmsCwCPZ-179" value="openapi-tenant-frontend-&#xa;696c4b95dd-ss6xq" style="rounded=1;fillColor=#23445D;gradientColor=none;strokeColor=none;fontColor=#FFFFFF;fontStyle=1;fontFamily=Tahoma;fontSize=14" vertex="1" parent="1">
          <mxGeometry x="2750" y="480" width="190" height="80" as="geometry" />
        </mxCell>
        <mxCell id="722zc47QyeTokmsCwCPZ-180" style="edgeStyle=orthogonalEdgeStyle;rounded=0;orthogonalLoop=1;jettySize=auto;html=1;exitX=0.5;exitY=1;exitDx=0;exitDy=0;" edge="1" parent="1" source="722zc47QyeTokmsCwCPZ-177" target="722zc47QyeTokmsCwCPZ-177">
          <mxGeometry relative="1" as="geometry" />
        </mxCell>
        <mxCell id="722zc47QyeTokmsCwCPZ-193" style="edgeStyle=orthogonalEdgeStyle;rounded=0;orthogonalLoop=1;jettySize=auto;html=1;" edge="1" parent="1" source="722zc47QyeTokmsCwCPZ-181" target="722zc47QyeTokmsCwCPZ-182">
          <mxGeometry relative="1" as="geometry" />
        </mxCell>
        <mxCell id="722zc47QyeTokmsCwCPZ-181" value="oracle" style="rounded=1;fillColor=#23445D;gradientColor=none;strokeColor=none;fontColor=#FFFFFF;fontStyle=1;fontFamily=Tahoma;fontSize=14" vertex="1" parent="1">
          <mxGeometry x="2950" y="335.5" width="190" height="80" as="geometry" />
        </mxCell>
        <mxCell id="722zc47QyeTokmsCwCPZ-182" value="oracle-&#xa;78b65746c6-bd8wv" style="rounded=1;fillColor=#23445D;gradientColor=none;strokeColor=none;fontColor=#FFFFFF;fontStyle=1;fontFamily=Tahoma;fontSize=14" vertex="1" parent="1">
          <mxGeometry x="2950" y="480" width="190" height="80" as="geometry" />
        </mxCell>
        <mxCell id="722zc47QyeTokmsCwCPZ-194" style="edgeStyle=orthogonalEdgeStyle;rounded=0;orthogonalLoop=1;jettySize=auto;html=1;" edge="1" parent="1" source="722zc47QyeTokmsCwCPZ-183" target="722zc47QyeTokmsCwCPZ-184">
          <mxGeometry relative="1" as="geometry" />
        </mxCell>
        <mxCell id="722zc47QyeTokmsCwCPZ-183" value="rabbitmq-rabbitmq" style="rounded=1;fillColor=#23445D;gradientColor=none;strokeColor=none;fontColor=#FFFFFF;fontStyle=1;fontFamily=Tahoma;fontSize=14" vertex="1" parent="1">
          <mxGeometry x="3150" y="335.5" width="190" height="80" as="geometry" />
        </mxCell>
        <mxCell id="722zc47QyeTokmsCwCPZ-184" value="rabbitmq-rabbitmq-&#xa;674d545d4d-g4gb8" style="rounded=1;fillColor=#23445D;gradientColor=none;strokeColor=none;fontColor=#FFFFFF;fontStyle=1;fontFamily=Tahoma;fontSize=14" vertex="1" parent="1">
          <mxGeometry x="3150" y="480" width="190" height="80" as="geometry" />
        </mxCell>
        <mxCell id="722zc47QyeTokmsCwCPZ-195" style="edgeStyle=orthogonalEdgeStyle;rounded=0;orthogonalLoop=1;jettySize=auto;html=1;entryX=0.5;entryY=0;entryDx=0;entryDy=0;" edge="1" parent="1" source="722zc47QyeTokmsCwCPZ-185" target="722zc47QyeTokmsCwCPZ-186">
          <mxGeometry relative="1" as="geometry" />
        </mxCell>
        <mxCell id="722zc47QyeTokmsCwCPZ-185" value="redis-redis" style="rounded=1;fillColor=#23445D;gradientColor=none;strokeColor=none;fontColor=#FFFFFF;fontStyle=1;fontFamily=Tahoma;fontSize=14" vertex="1" parent="1">
          <mxGeometry x="3350" y="335.5" width="190" height="80" as="geometry" />
        </mxCell>
        <mxCell id="722zc47QyeTokmsCwCPZ-186" value="redis-redis-&#xa;84447cc47-lswpr" style="rounded=1;fillColor=#23445D;gradientColor=none;strokeColor=none;fontColor=#FFFFFF;fontStyle=1;fontFamily=Tahoma;fontSize=14" vertex="1" parent="1">
          <mxGeometry x="3350" y="480" width="190" height="80" as="geometry" />
        </mxCell>
        <mxCell id="722zc47QyeTokmsCwCPZ-196" style="edgeStyle=orthogonalEdgeStyle;rounded=0;orthogonalLoop=1;jettySize=auto;html=1;entryX=0.5;entryY=0;entryDx=0;entryDy=0;" edge="1" parent="1" source="722zc47QyeTokmsCwCPZ-187" target="722zc47QyeTokmsCwCPZ-188">
          <mxGeometry relative="1" as="geometry" />
        </mxCell>
        <mxCell id="722zc47QyeTokmsCwCPZ-187" value="sqlserver" style="rounded=1;fillColor=#23445D;gradientColor=none;strokeColor=none;fontColor=#FFFFFF;fontStyle=1;fontFamily=Tahoma;fontSize=14" vertex="1" parent="1">
          <mxGeometry x="3550" y="335.5" width="190" height="80" as="geometry" />
        </mxCell>
        <mxCell id="722zc47QyeTokmsCwCPZ-188" value="sqlserver-&#xa;875998bbc-bhq5t" style="rounded=1;fillColor=#23445D;gradientColor=none;strokeColor=none;fontColor=#FFFFFF;fontStyle=1;fontFamily=Tahoma;fontSize=14" vertex="1" parent="1">
          <mxGeometry x="3550" y="480" width="190" height="80" as="geometry" />
        </mxCell>
        <mxCell id="722zc47QyeTokmsCwCPZ-197" style="edgeStyle=orthogonalEdgeStyle;rounded=0;orthogonalLoop=1;jettySize=auto;html=1;entryX=0.5;entryY=0;entryDx=0;entryDy=0;" edge="1" parent="1" source="722zc47QyeTokmsCwCPZ-189" target="722zc47QyeTokmsCwCPZ-190">
          <mxGeometry relative="1" as="geometry" />
        </mxCell>
        <mxCell id="722zc47QyeTokmsCwCPZ-189" value="zookeeper-zookeeper" style="rounded=1;fillColor=#23445D;gradientColor=none;strokeColor=none;fontColor=#FFFFFF;fontStyle=1;fontFamily=Tahoma;fontSize=14" vertex="1" parent="1">
          <mxGeometry x="3750" y="335.5" width="190" height="80" as="geometry" />
        </mxCell>
        <mxCell id="722zc47QyeTokmsCwCPZ-190" value="zookeeper-zookeeper-&#xa;5b6bd94577-64999" style="rounded=1;fillColor=#23445D;gradientColor=none;strokeColor=none;fontColor=#FFFFFF;fontStyle=1;fontFamily=Tahoma;fontSize=14" vertex="1" parent="1">
          <mxGeometry x="3750" y="480" width="190" height="80" as="geometry" />
        </mxCell>
      </root>
    </mxGraphModel>
  </diagram>
</mxfile>
